# xmcd CD database file
#
# Track frame offsets:
#	150
#	19070
#	30258
#	42788
#	57920
#	73628
#	88180
#	103928
#	118858
#	133698
#	146908
#	159555
#	177290
#	193435
#	232708
#	250943
#	265973
#
# Disc length: 4460 seconds
#
# Revision: 0
# Processed by: cddbd v1.5.1PL2 Copyright (c) Steve Scherf et al.
# Submitted via: CDex 1.51
#
DISCID=f4116a11
DTITLE=Various Artist - Stardust (Universal)
DYEAR=2004
DGENRE=Jazz
TTITLE0=Stardust-Mantovani&His Orchestra
TTITLE1=Stardust-Hoagy Carmichael
TTITLE2=Stardust-Bing Crosby
TTITLE3=Stardust-Louis Armstrong&Jack Teagarden
TTITLE4=Stardust-BennyGoodman
TTITLE5=Stardust-Ben Webster
TTITLE6=Stardust-Clifford Brown
TTITLE7=Stardust-Connie Francis
TTITLE8=Stardust-Pat Boone
TTITLE9=Stardust-The Mills Brothers
TTITLE10=Stardust-The Blue Stars of France
TTITLE11=Stardust-The Boston Pops Orchestra
TTITLE12=Stardust-Lester Young&Oscar Peterson
TTITLE13=Stardust-Doc Cheatham&Nicholas Payton
TTITLE14=Stardust-Ella Fitzgerald
TTITLE15=Stardust-Sarah Vaughan
TTITLE16=Stardust-Lionel Hampton
EXTD=YEAR: 2004
EXTT0=
EXTT1=
EXTT2=
EXTT3=
EXTT4=
EXTT5=
EXTT6=
EXTT7=
EXTT8=
EXTT9=
EXTT10=
EXTT11=
EXTT12=
EXTT13=
EXTT14=
EXTT15=
EXTT16=
PLAYORDER=
